<svg width="25" height="24" viewBox="0 0 25 24" fill="none" xmlns="http://www.w3.org/2000/svg">
<path fill-rule="evenodd" clip-rule="evenodd" d="M5.66041 5.15152C6.11702 4.68289 6.85734 4.68289 7.31395 5.15152L12.3333 10.303L17.3527 5.15152C17.8093 4.68289 18.5496 4.68289 19.0063 5.15152C19.4629 5.62015 19.4629 6.37995 19.0063 6.84858L13.9869 12L19.0063 17.1515C19.4629 17.6202 19.4629 18.3799 19.0063 18.8486C18.5496 19.3172 17.8093 19.3172 17.3527 18.8486L12.3333 13.6971L7.31395 18.8486C6.85734 19.3172 6.11702 19.3172 5.66041 18.8486C5.20379 18.3799 5.20379 17.6202 5.66041 17.1515L10.6798 12L5.66041 6.84858C5.20379 6.37995 5.20379 5.62015 5.66041 5.15152Z" fill="#FDFEFE"/>
</svg>
